# xmcd
#
# Track frame offsets:
#	182
#	13657
#	28732
#	41857
#	58957
#	71557
#	87832
#	98932
#	113782
#	126157
#	147832
#	164032
#	175132
#	187732
#	200932
#	218407
#	231757
#	249832
#
# Disc length: 3471 seconds
#
# Revision: 0
# Processed by: cddbd v1.4PL0 Copyright (c) Steve Scherf et al.
# Submitted via: dBpowerAMP V4.0
#
DISCID=030d8d12
DTITLE=Various Artist - The Real Australian Country
DYEAR=1996
DGENRE=Country
TTITLE0=Harry Young/My Back Yard
TTITLE1=Kate Ballantyne/Runnin' Around
TTITLE2=Jack Pledge/It Must Be Love
TTITLE3=Roxanne Paladin/Little Bit of You
TTITLE4=Dwayne Elix/I'm Into Something Good
TTITLE5=Two Macs/Auctioneer
TTITLE6=Stephen R. Cheney/Take a Ride in the Country
TTITLE7=Sutton Sisters/I'm Not Lisa
TTITLE8=Ellensborough Falls/Bobby Silk
TTITLE9=Kathy Raydings/Born to be Blue
TTITLE10=The Pitt Family/I am Australian
TTITLE11=Country Eagles/My Heart is Pure Country
TTITLE12=Adriana Mullard/Make Mine Country
TTITLE13=Bill Murray/Hundred in the Shade
TTITLE14=The Bootlegg Brothers/Lying Low
TTITLE15=Allan Gumm/Man Across the Room
TTITLE16=Paul Jones/The River
TTITLE17=Jan and Peter/Sea of Heartbreak
EXTD=Independent Complilation \nVolume 5
EXTT0=
EXTT1=
EXTT2=
EXTT3=
EXTT4=
EXTT5=
EXTT6=
EXTT7=
EXTT8=
EXTT9=
EXTT10=
EXTT11=
EXTT12=
EXTT13=
EXTT14=
EXTT15=
EXTT16=
EXTT17=
PLAYORDER=
